<?xml version="1.0" encoding="iso-8859-1"?>
<!-- Generator: Adobe Illustrator 19.0.0, SVG Export Plug-In . SVG Version: 6.00 Build 0)  -->
<svg version="1.1" id="Layer_1" xmlns="http://www.w3.org/2000/svg" xmlns:xlink="http://www.w3.org/1999/xlink" x="0px" y="0px"
	 viewBox="0 0 512.001 512.001" style="enable-background:new 0 0 512.001 512.001;" xml:space="preserve" fill="white">
<path d="M509.072,138.953c-3.906-3.905-10.236-3.905-14.143,0c-1.366,1.366-2.765,2.657-4.189,3.891l-76.458-76.459
	c-3.905-3.905-10.235-3.905-14.143,0c-3.905,3.905-3.905,10.237,0,14.142l73.551,73.551c-32.911,15.963-76.005,9.24-121.208,1.938
	c-3.187-18.38-6.006-36.344-6.861-53.463l41.579,41.579c1.953,1.953,4.512,2.929,7.071,2.929c2.559,0,5.118-0.977,7.071-2.929
	c3.905-3.905,3.905-10.237,0-14.142l-55.058-55.058c2.438-21.532,10.012-41.111,26.597-57.695l0.176-0.176
	c3.899-3.911,3.891-10.242-0.02-14.142c-3.911-3.899-10.243-3.891-14.143,0.02l-0.166,0.166
	c-41.112,41.112-36.199,95.466-27.102,149.602c-55.083-8.387-110.138-12.362-150.622,28.121
	c-41.942,41.943-34.815,98.543-25.144,154.311c-56.132-8.967-113.176-15.988-152.931,23.768c-3.905,3.905-3.905,10.237,0,14.143
	c1.953,1.953,4.512,2.929,7.071,2.929s5.118-0.977,7.071-2.929c16.333-16.333,36.851-23.006,59.903-24.544l61.978,61.978
	c1.953,1.953,4.512,2.929,7.071,2.929s5.118-0.976,7.071-2.929c3.905-3.905,3.905-10.237,0-14.143l-47.516-47.516
	c17.256,1.277,35.42,4.169,53.939,7.161c7.58,43.719,13.09,85.088-5.013,118.31l-83.432-83.435c-3.905-3.904-10.237-3.905-14.143,0
	c-3.905,3.905-3.905,10.237,0,14.143l85.866,85.866c-1.175,1.315-2.396,2.614-3.677,3.894l-0.176,0.176
	c-3.899,3.911-3.891,10.242,0.02,14.142c1.952,1.946,4.507,2.919,7.062,2.919c2.563,0,5.128-0.98,7.081-2.939l0.166-0.166
	c41.112-41.112,36.199-95.466,27.102-149.602c55.083,8.387,110.138,12.362,150.622-28.121
	c41.942-41.943,34.815-98.543,25.144-154.311c56.135,8.968,113.178,15.988,152.933-23.766
	C512.977,149.191,512.977,142.859,509.072,138.953z M335.248,173.508c4.261,24.203,8.246,47.778,8.309,69.692l-36.721-36.72
	c-3.906-3.905-10.236-3.905-14.143,0c-3.905,3.905-3.905,10.237,0,14.142l48.698,48.698c-2.705,14.577-8.19,28.084-17.784,40.145
	L202.506,188.364C237.285,160.408,284.656,165.524,335.248,173.508z M176.753,338.495c-4.268-24.238-8.258-47.847-8.31-69.788
	l37.425,37.426c1.953,1.953,4.512,2.929,7.071,2.929s5.118-0.977,7.071-2.929c3.905-3.905,3.905-10.237,0-14.142l-49.387-49.387
	c2.71-14.547,8.192-28.028,17.77-40.067l121.102,121.102C274.717,351.594,227.345,346.479,176.753,338.495z"/>
<path d="M243.514,315.492l-0.095-0.095c-3.906-3.905-10.236-3.905-14.143,0c-3.905,3.905-3.905,10.237,0,14.143l0.095,0.095
	c1.953,1.953,4.512,2.929,7.071,2.929s5.118-0.976,7.071-2.929C247.419,325.729,247.419,319.397,243.514,315.492z"/>
<path d="M269.193,197.12l0.095,0.095c1.953,1.953,4.512,2.929,7.071,2.929s5.118-0.976,7.071-2.929
	c3.905-3.905,3.905-10.237,0-14.143l-0.095-0.095c-3.906-3.905-10.236-3.905-14.143,0
	C265.287,186.883,265.287,193.215,269.193,197.12z"/>
<g>
</g>
<g>
</g>
<g>
</g>
<g>
</g>
<g>
</g>
<g>
</g>
<g>
</g>
<g>
</g>
<g>
</g>
<g>
</g>
<g>
</g>
<g>
</g>
<g>
</g>
<g>
</g>
<g>
</g>
</svg>
