<svg id="Capa_1" enable-background="new 0 0 512 512" x="0px" y="0px" viewBox="0 0 512 512" fill="white" xmlns="http://www.w3.org/2000/svg"><path d="m385.51 148.49c-4.177 0-7.985-2.69-9.402-6.615-1.38-3.819-.25-8.226 2.809-10.902 3.278-2.867 8.171-3.26 11.87-.97 3.518 2.177 5.36 6.47 4.51 10.52-.962 4.581-5.099 7.967-9.787 7.967z"/><path d="m427.277 350.442c-15.784 0-30.466 4.808-42.658 13.037l-46.228-47.185c14.519-17.382 23.266-39.742 23.266-64.107 0-21.382-6.737-41.221-18.199-57.506l17.196-17.194c3.906-3.905 3.906-10.236.001-14.142-3.904-3.905-10.235-3.905-14.142-.001l-16.169 16.168c-17.961-17.02-42.206-27.475-68.846-27.475-22.074 0-42.503 7.178-59.076 19.321l-27.088-31.196c.169-.249.337-.499.501-.752 6.4-9.83 8.589-21.564 6.162-33.04-5.009-23.689-28.357-38.883-52.051-33.88v.001c-11.477 2.426-21.321 9.176-27.721 19.006-6.4 9.831-8.589 21.564-6.161 33.041 4.364 20.64 22.65 34.833 42.956 34.833 3 0 6.044-.31 9.094-.954 4.448-.941 8.651-2.531 12.503-4.698l26.92 31.002c-16.266 17.813-26.199 41.501-26.199 67.465 0 12.765 2.401 24.98 6.775 36.217l-61.963 53.667c-11.078-12.896-27.498-21.077-45.793-21.077-33.281 0-60.357 27.073-60.357 60.352s27.076 60.352 60.357 60.352 60.357-27.073 60.357-60.352c0-7.725-1.459-15.116-4.117-21.912.226-.165.448-.34.663-.527l60.26-52.19c17.884 27.442 48.847 45.619 83.976 45.619 23.673 0 45.454-8.255 62.615-22.036l45.505 46.447c-11.693 13.43-18.783 30.967-18.783 50.13 0 42.146 34.291 76.433 76.441 76.433 42.149 0 76.44-34.287 76.44-76.433s-34.287-76.434-76.437-76.434zm-366.92 71.254c-22.253 0-40.357-18.101-40.357-40.351s18.104-40.352 40.357-40.352 40.357 18.102 40.357 40.352-18.104 40.351-40.357 40.351zm83.62-282.846c-12.892 2.733-25.618-5.548-28.347-18.449-1.321-6.248-.13-12.638 3.355-17.99 3.485-5.354 8.847-9.029 15.097-10.352v.001c12.897-2.729 25.618 5.549 28.347 18.449 1.321 6.248.13 12.638-3.355 17.991-3.485 5.352-8.847 9.028-15.097 10.35zm37.362 113.338c0-44.194 35.959-80.149 80.159-80.149s80.159 35.955 80.159 80.149-35.959 80.148-80.159 80.148-80.159-35.954-80.159-80.148zm245.938 231.121c-31.122 0-56.441-25.315-56.441-56.433s25.319-56.434 56.441-56.434c31.121 0 56.44 25.316 56.44 56.434s-25.319 56.433-56.44 56.433z"/><path d="m449.569 133.54c-34.424 0-62.43-28.003-62.43-62.424s28.006-62.425 62.43-62.425c34.425 0 62.431 28.004 62.431 62.425s-28.006 62.424-62.431 62.424zm0-104.849c-23.396 0-42.43 19.031-42.43 42.425 0 23.393 19.034 42.424 42.43 42.424s42.431-19.031 42.431-42.424-19.034-42.425-42.431-42.425z"/></svg>