<svg id="Icons" width="40" enable-background="new 0 0 512 512" x="0px" y="0px" viewBox="0 0 74 74" xmlns="http://www.w3.org/2000/svg" fill="white"><path d="m14.4 68.291a1 1 0 0 1 -1-1v-12.791h-7.212a4.193 4.193 0 0 1 -4.188-4.193v-40.407a4.193 4.193 0 0 1 4.188-4.191h61.624a4.193 4.193 0 0 1 4.188 4.191v40.407a4.193 4.193 0 0 1 -4.188 4.193h-38.157l-14.571 13.523a.993.993 0 0 1 -.684.268zm-8.212-60.582a2.191 2.191 0 0 0 -2.188 2.191v40.407a2.191 2.191 0 0 0 2.188 2.193h8.212a1 1 0 0 1 1 1v11.5l13.183-12.238a1 1 0 0 1 .68-.267h38.549a2.191 2.191 0 0 0 2.188-2.188v-40.407a2.191 2.191 0 0 0 -2.188-2.189z"/><path d="m57.725 20h-41.45a1 1 0 1 1 0-2h41.45a1 1 0 0 1 0 2z"/><path d="m57.725 31.1h-41.45a1 1 0 1 1 0-2h41.45a1 1 0 0 1 0 2z"/><path d="m57.725 42.206h-41.45a1 1 0 1 1 0-2h41.45a1 1 0 1 1 0 2z"/></svg>