<?xml version="1.0" encoding="iso-8859-1"?>
<!-- Generator: Adobe Illustrator 19.0.0, SVG Export Plug-In . SVG Version: 6.00 Build 0)  -->
<svg version="1.1" id="Layer_1" xmlns="http://www.w3.org/2000/svg" xmlns:xlink="http://www.w3.org/1999/xlink" x="0px" y="0px"
	 viewBox="0 0 512 512" style="enable-background:new 0 0 512 512;" xml:space="preserve" fill="white">
<g>
	<g>
		<path d="M502.766,98.944H287.189c-3.602,0-6.855,2.154-8.261,5.47l-118.76,279.932L61.544,219.971
			c-1.623-2.703-4.543-4.357-7.696-4.357H8.975c-4.956,0-8.975,4.018-8.975,8.975s4.018,8.975,8.975,8.975h39.792l105.081,175.136
			c1.629,2.715,4.558,4.357,7.694,4.357c0.208,0,0.417-0.008,0.627-0.022c3.368-0.234,6.319-2.34,7.637-5.448L293.13,116.893
			h209.637c4.956,0,8.975-4.018,8.975-8.975S507.723,98.944,502.766,98.944z"/>
	</g>
</g>
<g>
	<g>
		<path d="M358.217,327.797l69.938-69.938c3.505-3.506,3.505-9.187,0-12.693c-3.506-3.503-9.187-3.503-12.693,0l-69.938,69.938
			l-69.938-69.938c-3.506-3.503-9.187-3.503-12.693,0c-3.505,3.506-3.505,9.187,0,12.693l69.938,69.938l-69.938,69.938
			c-3.505,3.506-3.505,9.187,0,12.693c1.753,1.752,4.049,2.628,6.346,2.628s4.594-0.876,6.346-2.628l69.938-69.938l69.938,69.938
			c1.753,1.752,4.049,2.628,6.346,2.628c2.297,0,4.594-0.876,6.346-2.628c3.505-3.506,3.505-9.187,0-12.693L358.217,327.797z"/>
	</g>
</g>
<g>
	<g>
		<path d="M502.58,224.589h-13.049c18.947-19.401,25.674-34.578,21.076-47.009c-4.628-12.509-19.016-15.814-25.976-15.814
			c-12.336,0-23.108,10.415-24.296,11.603c-3.495,3.495-3.492,9.144-0.012,12.653c3.479,3.509,9.157,3.532,12.68,0.063
			c2.611-2.569,8.112-6.37,11.628-6.37c2.589,0,8.163,1.445,9.142,4.093c2.056,5.561-7.328,20.995-32.932,42.941
			c-2.852,2.444-3.88,6.406-2.577,9.928c1.302,3.522,4.661,5.861,8.417,5.861h35.899c4.956,0,8.975-4.018,8.975-8.975
			C511.555,228.607,507.536,224.589,502.58,224.589z"/>
	</g>
</g>
<g>
</g>
<g>
</g>
<g>
</g>
<g>
</g>
<g>
</g>
<g>
</g>
<g>
</g>
<g>
</g>
<g>
</g>
<g>
</g>
<g>
</g>
<g>
</g>
<g>
</g>
<g>
</g>
<g>
</g>
</svg>
